<svg width="608" height="608" viewBox="0 0 608 608" fill="none" xmlns="http://www.w3.org/2000/svg">
<g filter="url(#filter0_d)">
<path d="M4 0H604V600H4V0Z" fill="#FF5252"/>
<g filter="url(#filter1_i)">
<path d="M84.0703 292.512H119.842V260.07H132.356V343H119.842V304.274H84.0703V343H71.5557V260.07H84.0703V292.512ZM200.945 322.858H165.442L156.204 343H142.723L183.758 254.86L223.343 343H209.646L200.945 322.858ZM195.843 311.096L183.543 282.897L170.652 311.096H195.843ZM280.652 272.424L270.501 278.439C268.603 275.145 266.795 272.997 265.076 271.994C263.286 270.848 260.976 270.275 258.147 270.275C254.674 270.275 251.792 271.26 249.5 273.229C247.208 275.163 246.062 277.598 246.062 280.534C246.062 284.58 249.07 287.839 255.086 290.31L263.357 293.693C270.089 296.415 275.013 299.745 278.128 303.684C281.243 307.587 282.801 312.385 282.801 318.078C282.801 325.705 280.258 332.007 275.174 336.984C270.053 341.997 263.698 344.504 256.106 344.504C248.909 344.504 242.965 342.373 238.274 338.112C233.655 333.851 230.773 327.854 229.627 320.119L242.303 317.326C242.876 322.196 243.878 325.562 245.311 327.424C247.889 331.005 251.648 332.795 256.59 332.795C260.493 332.795 263.733 331.488 266.312 328.874C268.89 326.26 270.179 322.948 270.179 318.938C270.179 317.326 269.946 315.858 269.48 314.533C269.051 313.173 268.353 311.937 267.386 310.827C266.455 309.681 265.237 308.625 263.733 307.658C262.229 306.656 260.439 305.707 258.362 304.812L250.359 301.481C239.008 296.683 233.333 289.665 233.333 280.427C233.333 274.196 235.714 268.986 240.477 264.797C245.239 260.572 251.165 258.459 258.255 258.459C267.815 258.459 275.281 263.114 280.652 272.424ZM310.408 292.512H346.18V260.07H358.694V343H346.18V304.274H310.408V343H297.894V260.07H310.408V292.512ZM391.082 260.07V343H378.567V260.07H391.082ZM439.1 307.658L464.773 343H449.466L425.779 309.055H423.523V343H411.009V260.07H425.672C436.629 260.07 444.542 262.129 449.412 266.247C454.783 270.83 457.469 276.882 457.469 284.401C457.469 290.274 455.786 295.323 452.42 299.548C449.054 303.773 444.614 306.477 439.1 307.658ZM423.523 298.151H427.498C439.35 298.151 445.276 293.622 445.276 284.562C445.276 276.076 439.511 271.833 427.981 271.833H423.523V298.151ZM488.514 260.07V310.021C488.514 317.147 489.677 322.357 492.005 325.651C495.478 330.414 500.366 332.795 506.668 332.795C513.006 332.795 517.911 330.414 521.385 325.651C523.712 322.465 524.876 317.255 524.876 310.021V260.07H537.391V313.459C537.391 322.196 534.669 329.393 529.227 335.051C523.104 341.353 515.584 344.504 506.668 344.504C497.752 344.504 490.25 341.353 484.163 335.051C478.72 329.393 475.999 322.196 475.999 313.459V260.07H488.514Z" fill="white"/>
</g>
</g>
<defs>
<filter id="filter0_d" x="0" y="0" width="608" height="608" filterUnits="userSpaceOnUse" color-interpolation-filters="sRGB">
<feFlood flood-opacity="0" result="BackgroundImageFix"/>
<feColorMatrix in="SourceAlpha" type="matrix" values="0 0 0 0 0 0 0 0 0 0 0 0 0 0 0 0 0 0 127 0"/>
<feOffset dy="4"/>
<feGaussianBlur stdDeviation="2"/>
<feColorMatrix type="matrix" values="0 0 0 0 0 0 0 0 0 0 0 0 0 0 0 0 0 0 0.25 0"/>
<feBlend mode="normal" in2="BackgroundImageFix" result="effect1_dropShadow"/>
<feBlend mode="normal" in="SourceGraphic" in2="effect1_dropShadow" result="shape"/>
</filter>
<filter id="filter1_i" x="71.5557" y="254.86" width="465.835" height="93.6436" filterUnits="userSpaceOnUse" color-interpolation-filters="sRGB">
<feFlood flood-opacity="0" result="BackgroundImageFix"/>
<feBlend mode="normal" in="SourceGraphic" in2="BackgroundImageFix" result="shape"/>
<feColorMatrix in="SourceAlpha" type="matrix" values="0 0 0 0 0 0 0 0 0 0 0 0 0 0 0 0 0 0 127 0" result="hardAlpha"/>
<feOffset dy="4"/>
<feGaussianBlur stdDeviation="2"/>
<feComposite in2="hardAlpha" operator="arithmetic" k2="-1" k3="1"/>
<feColorMatrix type="matrix" values="0 0 0 0 0 0 0 0 0 0 0 0 0 0 0 0 0 0 0.25 0"/>
<feBlend mode="normal" in2="shape" result="effect1_innerShadow"/>
</filter>
</defs>
</svg>
